<svg id="tick-icn24" xmlns="http://www.w3.org/2000/svg" width="24" height="24" viewBox="0 0 24 24">
  <path id="Path_1136" data-name="Path 1136" d="M-70.154,37.762A1.1,1.1,0,0,0-71.206,38.9a9.815,9.815,0,0,1-9.387,10.2,9.731,9.731,0,0,1-7.046-2.581,9.738,9.738,0,0,1-3.156-6.806,9.814,9.814,0,0,1,9.387-10.2,9.9,9.9,0,0,1,4.717.988,1.1,1.1,0,0,0,1.469-.5,1.1,1.1,0,0,0-.5-1.47A12.008,12.008,0,0,0-81.5,27.323,12.012,12.012,0,0,0-92.99,39.811a11.922,11.922,0,0,0,3.864,8.332,11.916,11.916,0,0,0,8.113,3.169c.17,0,.34,0,.511-.011A12.013,12.013,0,0,0-69.011,38.813,1.1,1.1,0,0,0-70.154,37.762Z" transform="translate(93 -27.313)"/>
  <path id="Path_1137" data-name="Path 1137" d="M-85.22,38.382a1.1,1.1,0,0,0-1.553.014,1.1,1.1,0,0,0,.014,1.553l4.848,4.763L-71.189,33.99a1.1,1.1,0,0,0,0-1.553,1.1,1.1,0,0,0-1.554,0l-9.182,9.182Z" transform="translate(93 -27.313)"/>
</svg>
